<svg width="1280" height="1140" xmlns="http://www.w3.org/2000/svg"><rect width="100%" height="100%" fill="#ffffff"/><g transform="translate(0, 24)"><g transform="translate(0, 0)"><rect x="0" y="0" width="632" height="300" fill="#ffffff"    rx="12" ry="12"/><rect x="16" y="24" width="192" height="192" fill="#f3f4f6" stroke="#d1d5db" stroke-width="1"  rx="4" ry="4"/><text x="112" y="120" font-size="12" font-family="Arial, sans-serif" fill="#9ca3af" text-anchor="middle" dominant-baseline="central" >Image 1</text><rect x="216" y="24" width="192" height="192" fill="#f3f4f6" stroke="#d1d5db" stroke-width="1"  rx="4" ry="4"/><text x="312" y="120" font-size="12" font-family="Arial, sans-serif" fill="#9ca3af" text-anchor="middle" dominant-baseline="central" >Image 2</text><rect x="416" y="24" width="192" height="192" fill="#f3f4f6" stroke="#d1d5db" stroke-width="1"  rx="4" ry="4"/><text x="512" y="120" font-size="12" font-family="Arial, sans-serif" fill="#9ca3af" text-anchor="middle" dominant-baseline="central" >Image 3</text></g><g transform="translate(648, 0)"><g transform="translate(0, 8)"><rect x="0" y="0" width="584" height="200" fill="#ffffff"    rx="12" ry="12"/><text x="16" y="24" font-size="20" font-family="Arial, sans-serif" fill="#1f2937" text-anchor="start" dominant-baseline="baseline" font-weight="bold">Property Summary</text><text x="16" y="56" font-size="14" font-family="Arial, sans-serif" fill="#374151" text-anchor="start" dominant-baseline="baseline" >Beautiful modern property with stunning views and premium amenities.</text><rect x="16" y="106" width="96" height="24" fill="#dbeafe"    rx="12" ry="12"/><text x="64" y="118" font-size="12" font-family="Arial, sans-serif" fill="#1e40af" text-anchor="middle" dominant-baseline="central" >3 Bedrooms</text><rect x="128" y="106" width="104" height="24" fill="#dbeafe"    rx="12" ry="12"/><text x="180" y="118" font-size="12" font-family="Arial, sans-serif" fill="#1e40af" text-anchor="middle" dominant-baseline="central" >2 Bathrooms</text><rect x="160" y="106" width="64" height="24" fill="#dbeafe"    rx="12" ry="12"/><text x="192" y="118" font-size="12" font-family="Arial, sans-serif" fill="#1e40af" text-anchor="middle" dominant-baseline="central" >Modern</text></g><g transform="translate(0, 216)"><rect x="0" y="0" width="584" height="120" fill="#ffffff" stroke="#e5e7eb" stroke-width="1"  rx="12" ry="12"/><text x="280" y="32" font-size="24" font-family="Arial, sans-serif" fill="#1f2937" text-anchor="middle" dominant-baseline="baseline" font-weight="bold">$299</text><text x="280" y="57" font-size="14" font-family="Arial, sans-serif" fill="#6b7280" text-anchor="middle" dominant-baseline="baseline" >/night</text><rect x="28" y="44" width="528" height="36" fill="#333333"    rx="6" ry="6"/><text x="280" y="62" font-size="14" font-family="Arial, sans-serif" fill="#ffffff" text-anchor="middle" dominant-baseline="central" font-weight="bold">Book Now</text></g></g></g><g transform="translate(0, 440)"><g transform="translate(0, 8)"><rect x="0" y="0" width="1280" height="200" fill="#ffffff"    rx="12" ry="12"/><text x="16" y="32" font-size="18" font-family="Arial, sans-serif" fill="#1f2937" text-anchor="start" dominant-baseline="baseline" font-weight="bold">Amenities</text><rect x="16" y="66" width="1216" height="88" fill="#f9fafb" stroke="#e5e7eb" stroke-width="1"  rx="4" ry="4"/></g></g><g transform="translate(0, 728)"><g transform="translate(0, 8)"><rect x="0" y="0" width="1280" height="300" fill="#ffffff"    rx="12" ry="12"/><text x="16" y="32" font-size="18" font-family="Arial, sans-serif" fill="#1f2937" text-anchor="start" dominant-baseline="baseline" font-weight="bold">Reviews</text><rect x="16" y="66" width="1216" height="188" fill="#f9fafb" stroke="#e5e7eb" stroke-width="1"  rx="4" ry="4"/></g></g></svg>